<?xml version="1.0" encoding="utf-8"?>
<!-- Generator: Adobe Illustrator 16.0.3, SVG Export Plug-In . SVG Version: 6.00 Build 0)  -->
<!DOCTYPE svg PUBLIC "-//W3C//DTD SVG 1.1//EN" "http://www.w3.org/Graphics/SVG/1.1/DTD/svg11.dtd">
<svg version="1.1" id="Layer_1" xmlns="http://www.w3.org/2000/svg" xmlns:xlink="http://www.w3.org/1999/xlink" x="0px" y="0px"
	 width="19.838px" height="34.317px" viewBox="0 0 19.838 34.317" enable-background="new 0 0 19.838 34.317" xml:space="preserve">
<path fill-rule="evenodd" clip-rule="evenodd" d="M9.922,34.317c-0.728-1.122-1.429-2.18-2.1-3.256
	C7.296,30.221,6.802,29.359,6.3,28.5c-0.562-0.967-1.153-1.918-1.667-2.906c-0.671-1.299-1.281-2.626-1.915-3.943
	c-0.731-1.527-1.307-3.12-1.754-4.748c-0.604-2.199-1.041-4.434-0.953-6.738C0.059,8.96,0.312,7.807,0.724,6.671
	C0.96,6.023,1.259,5.412,1.604,4.82c0.509-0.876,1.148-1.656,1.897-2.323c1.38-1.226,2.974-2.109,4.813-2.374
	c2.088-0.301,4.119-0.077,6.021,0.972c0.758,0.417,1.459,0.908,2.075,1.489c0.573,0.538,1.159,1.094,1.531,1.819
	c0.185,0.357,0.449,0.673,0.634,1.03c1.024,1.985,1.387,4.097,1.226,6.313c-0.107,1.466-0.388,2.902-0.726,4.334
	c-0.282,1.195-0.658,2.349-1.124,3.479c-0.541,1.317-1.067,2.646-1.671,3.936c-0.498,1.068-1.096,2.094-1.66,3.133
	c-0.466,0.857-0.926,1.719-1.434,2.555c-0.618,1.026-1.281,2.029-1.927,3.043C10.825,32.905,10.392,33.584,9.922,34.317z
	 M14.502,10.013c0.138-2.447-2.075-4.693-4.738-4.612c-2.441,0.073-4.491,2.22-4.46,4.695c0.034,2.462,2.278,4.612,4.716,4.552
	C12.378,14.588,14.626,12.501,14.502,10.013z"/>
</svg>
