<?xml version="1.0" encoding="utf-8"?>
<!-- Generator: Adobe Illustrator 16.0.3, SVG Export Plug-In . SVG Version: 6.00 Build 0)  -->
<!DOCTYPE svg PUBLIC "-//W3C//DTD SVG 1.1//EN" "http://www.w3.org/Graphics/SVG/1.1/DTD/svg11.dtd">
<svg version="1.1" id="Layer_1" xmlns="http://www.w3.org/2000/svg" xmlns:xlink="http://www.w3.org/1999/xlink" x="0px" y="0px"
	 width="190.215px" height="78.343px" viewBox="0 0 190.215 78.343" enable-background="new 0 0 190.215 78.343"
	 xml:space="preserve">
<g>
	<path fill="#FFFFFF" d="M94.192,44.01c-1.095-0.409-2.5-0.814-4.217-1.223c-1.649-0.365-2.878-0.735-3.685-1.11
		c-0.805-0.375-1.206-0.949-1.206-1.722c0-0.772,0.347-1.394,1.046-1.867c0.697-0.472,1.773-0.708,3.235-0.708
		c2.079,0,4.16,0.59,6.242,1.771l1.609-3.958c-1.031-0.644-2.233-1.137-3.603-1.48c-1.375-0.343-2.78-0.515-4.217-0.515
		c-2.058,0-3.803,0.311-5.229,0.934c-1.426,0.622-2.495,1.464-3.202,2.525c-0.709,1.063-1.061,2.249-1.061,3.557
		c0,1.503,0.391,2.703,1.174,3.605c0.781,0.899,1.722,1.555,2.813,1.963c1.095,0.406,2.5,0.814,4.217,1.223
		c1.115,0.257,1.999,0.494,2.654,0.707c0.655,0.213,1.192,0.499,1.608,0.851c0.419,0.355,0.63,0.802,0.63,1.336
		c0,0.73-0.354,1.315-1.064,1.755c-0.709,0.439-1.801,0.661-3.281,0.661c-1.331,0-2.663-0.216-3.991-0.645
		c-0.896-0.288-1.677-0.663-2.407-1.077c0.049-0.072,0.126-0.103,0.162-0.19c-0.303-1.1-1.565-1.482-2.291-2.261
		c-0.926,0.18-0.797-0.421-0.875-0.874c-0.901-0.627-0.788-1.48-0.713-2.318c-0.175-0.55-0.467-1.095-1.237-0.771
		c-1.576,0.647-2.506-0.401-3.904-0.889c0.698-0.452,1.518-0.357,1.833-0.94c-0.416-0.144-0.807-0.087-1.181-0.134
		c-1.083,0.529-1.944,0.052-2.788-0.499c-0.019-0.025-0.019-0.046-0.037-0.066H69.98v6.19c0,0.64,0.163,1.139,0.492,1.488
		c0.33,0.347,0.798,0.521,1.4,0.521c0.696,0,1.292-0.188,1.782-0.568l1.187,3.112c-0.433,0.321-0.966,0.56-1.597,0.722
		c-0.633,0.159-1.297,0.239-1.994,0.239c-1.81,0-3.209-0.46-4.199-1.385c-0.992-0.925-1.485-2.282-1.485-4.073v-6.247H63.22v-3.395
		h2.347v-3.705h2.148c-0.721-0.648-0.691-1.654-0.594-2.594c0.097-0.954,0.873-0.424,1.387-0.482
		c-0.172-0.748,0.633-1.25,0.629-1.95c0.099-0.468,0.013-0.902-0.523-1.113c-0.518-0.199-0.654,0.347-1.014,0.473
		c0.027,0.202-0.055,0.449-0.292,0.365c-0.265-0.101-0.09,0.186-0.192-0.061c-0.562-1.393,0.022-2.784-0.062-4.174
		c0.07-0.517-0.027-1.051,0.185-1.548c-0.813-0.57-0.417-2.125-2.149-1.952c-0.692,0.75-1.195,1.588-1.71,2.431
		c0.114,1.005-1.097,0.731-1.552,1.196c0.055,0.344,0.063,0.762-0.497,0.608c-0.756-0.205-0.183-0.802-0.348-1.192
		c-0.689-0.292-0.545-1.381-1.65-1.274c-1.073,0.099-0.354,0.98-0.786,1.358c0.453,0.702,1.589,1.188,0.992,2.218
		c-0.054,0.335-0.347,0.457-0.661,0.564c-0.896,1.213-1.368,0.367-1.875-0.313c-0.318,0.069-0.686-0.013-0.947,0.222
		c0.184,0.325,0.095,0.662,0.057,0.98c-0.085,0.69,0.279,1.683-0.822,1.849c-0.756,0.12-1.585-0.32-1.92-1.1
		c-1.234-1.571-2.954-2.863-3.61-4.754c-1.517-1.713-2.446-3.642-2.896-5.738c0.026-0.207-0.024-0.405-0.15-0.583
		c-0.405-2.037-1.849-3.854-1.812-5.985c-0.922-1.439-0.136-3.429-2.076-4.538c-0.775-0.048-1.553-0.089-2.33-0.139
		c-0.053,1.224-0.272,2.441,0.261,3.639c-0.011,0.294-0.059,0.589,0.044,0.886c0.469,1.034,1.246,1.987,1.127,3.164
		c-0.38,0.895,1.209,1.257,0.822,2.15c0.744,2.385,2.532,4.459,2.883,6.96c0.968,0.951,1.212,2.086,1.194,3.291
		c-0.226,0.795,1.29,1.701-0.165,2.416c-0.102,2.463-0.535,2.799-3.008,2.636c-0.749-0.053-1.295-0.396-1.943-0.588
		c-3.275-0.98-4.344-4.05-7.083-5.591c-0.732-0.406-1.868-0.75-2.124-1.719c-1.182,0.267-1.853-1.742-3.235-0.591
		c1.352,1.255,2.035,2.918,3.418,4.153c0.91-0.1,1.168,0.727,1.834,0.966c0.577,0.118,0.847,0.479,1.015,0.93
		c0.989,0.369,1.822,0.88,2.299,1.75c1.091,0.01,1.405,0.711,1.708,1.429c0.885,1.053,0.822,2.242,0.683,3.436
		c0.009,0.432-0.724,0.577-0.54,1.078c-0.047,0.031-0.096,0.049-0.144,0.078c0.517-0.06,1.037-0.104,1.565-0.104
		c2.356,0,4.166,0.562,5.428,1.685c1.263,1.12,1.896,2.811,1.896,5.075v8.683h-4.13v-1.896c-0.562,0.956-1.479,1.562-2.698,1.871
		c0.253,0.455-0.04,0.889-1.015,1.298c-0.016,0.336-0.595,0.483-0.439,0.84c0.814,1.938,0.433,2.601-1.979,3.351
		c-0.125,0.293-0.38,0.468-0.722,0.558c0.028,0.912-0.946,1.01-1.512,1.465c-1.865,1.5-4.704,2.338-4.845,5.07
		c0.064,2.063,2.147,1.23,3.299,1.732c0.209-0.105,0.332-0.258,0.357-0.463c1.253-1.775,2.674-3.372,5.29-3.716
		c0.062-0.185,0.102-0.37,0.104-0.565c0.018-1.1,0.603-1.737,1.933-1.763c0.254-1.552,1.395-0.812,2.317-0.635
		c0.513-0.301,0.342-1.077,1.103-1.205c0.05-0.383,0.338-0.421,0.702-0.35c0.833,0.198,1.498-1.189,1.97-0.521
		c0.997,1.421,3.041,2.434,2.725,4.44c0.185,0.375-0.546,0.979,0.41,1.174c-0.005-0.136-0.029-0.278,0.032-0.396
		c0.234-0.442,0.506-0.192,0.432,0.064c-0.271,0.923,0.19,1.642,0.742,2.366c0.32,0.104,0.66,0.104,0.997,0.121
		c0.496-0.028,0.725-0.416,1.104-0.604c0.001-0.71-0.455-1.491,0.388-2.071c0.104-0.586,0.665-0.375,1.068-0.437
		c0.459-0.792,1.209-0.082,1.789-0.236c0.081-0.37,0.002-0.822,0.64-0.892c-0.402-1.118,1.229-0.817,1.479-1.637
		c0.472-1.567,1.583-1.788,2.401-0.462c0.843,1.37,2.349,1.976,3.449,3.014c1.649,1.504,2.919,3.226,3.943,5.083
		c0.47,0.812,0.689,1.832,2.404,2.146c-0.46-0.855-0.592-1.526-0.673-2.199c-0.647-1.501-1.336-2.996-0.915-4.636
		c-0.862-0.227-2.044-0.144-1.873-1.401c-0.231-0.622-0.781-1.169-0.857-1.801c-0.181-1.452-1.578-2.783-0.666-4.335
		c0.88-1.221,2.011-0.861,3.172-0.332c0.465,0.067,0.61,0.617,1.153,0.57c0.794,0.098,1.571,0.093,2.256-0.316
		c0.023-0.517-1.161-0.27-0.835-0.958c0.181-0.385,0.68-0.162,1-0.303c0.388-1.215,2.259-0.059,2.612-1.113
		c0.532-1.606,1.803-1.434,3.203-1.154c0.216-0.195,0.495-0.313,0.79-0.406l-1.082,2.4c1.007,0.771,2.344,1.398,4.006,1.881
		c1.663,0.483,3.384,0.725,5.165,0.725c2.061,0,3.811-0.313,5.248-0.936s2.513-1.462,3.235-2.523
		c0.717-1.064,1.077-2.238,1.077-3.526c0-1.5-0.393-2.693-1.174-3.572C96.225,45.061,95.284,44.418,94.192,44.01z M61.861,41.761
		c-0.489-0.039-0.818-0.057-0.988-0.057c-1.263,0-2.253,0.352-2.968,1.059c-0.717,0.709-1.076,1.768-1.076,3.181v7.185h-4.411
		V37.915h4.211v2.008c0.528-0.736,1.241-1.292,2.136-1.669c0.896-0.377,1.928-0.566,3.095-0.566V41.761z"/>
	<polygon fill="#FFFFFF" points="106.937,46.71 117.395,46.71 117.395,42.658 106.937,42.658 106.937,37.767 118.778,37.767 
		118.778,33.583 101.756,33.583 101.756,56.11 119.194,56.11 119.194,51.927 106.937,51.927 	"/>
	<rect x="123.347" y="33.583" fill="#FFFFFF" width="5.211" height="22.527"/>
	<polygon fill="#FFFFFF" points="139.114,33.583 133.903,33.583 133.903,56.11 150.411,56.11 150.411,51.86 139.114,51.86 	"/>
	<polygon fill="#FFFFFF" points="158.552,33.583 153.335,33.583 153.335,56.11 169.848,56.11 169.848,51.86 158.552,51.86 	"/>
	<polygon fill="#FFFFFF" points="177.958,51.927 177.958,46.71 188.416,46.71 188.416,42.658 177.958,42.658 177.958,37.767 
		189.799,37.767 189.799,33.583 172.772,33.583 172.772,56.11 190.215,56.11 190.215,51.927 	"/>
	<path fill="#FFFFFF" d="M71.399,6.275c0.005-0.135,0.016-0.267,0.023-0.399c0.104-0.812,0.837-1.5,0.603-2.379
		c-0.815-0.524-0.798-1.416-1.283-2.083c0.052-0.805-1.188-0.628-1.327-1.283C68.979,0.094,68.542,0.116,68.116,0
		c-0.249,0.639-1.088,0.42-1.542,0.77c-0.055,0.934-0.11,1.872-0.159,2.806c1.158,0.632,1.785,1.848,3.197,2.202
		C70.122,6.187,70.74,6.288,71.399,6.275z"/>
	<path fill="#FFFFFF" d="M44.02,48.322v-1.555h-3.025c-1.809,0-2.712,0.591-2.712,1.778c0,0.565,0.22,1.015,0.662,1.346
		c0.443,0.329,1.051,0.494,1.826,0.494c0.753,0,1.424-0.175,2.008-0.524C43.36,49.511,43.776,48.998,44.02,48.322z"/>
	<path fill="#FFFFFF" d="M34.66,51.12c-0.452-0.699-0.678-1.49-0.678-2.375c0-1.418,0.53-2.528,1.597-3.338s2.711-1.215,4.934-1.215
		h3.507c0-0.961-0.292-1.701-0.876-2.22s-1.461-0.776-2.631-0.776c-0.808,0-1.606,0.124-2.387,0.38
		c-0.783,0.254-1.448,0.596-1.994,1.033l-1.584-3.083c0.346-0.243,0.738-0.45,1.14-0.648c-1.569,0.023-3.171-0.328-4.778-0.714
		c-2.012-0.298-3.814-1.075-5.574-1.938l-0.007-2.643h-4.281l-8.3,13.998L4.312,33.583H0V56.11h4.893V42.882l6.597,10.844h2.351
		l6.627-11.132l0.033,13.517h4.89l-0.014-4.79c1.852-0.473,3.342-2.082,5.63-1.385c-0.085,1.128-1.42,1.138-1.993,1.863
		c0.645,0.524,1.413,0.756,2.135,0.946c-0.027,0.786-1.144,0.401-1.248,1.018c0.464,0.031,0.929,0.057,1.399,0.083
		c0.672-0.594,1.582-0.581,2.446-0.673c0.879-0.165,1.741-0.394,2.616-0.576C35.647,52.215,35.06,51.737,34.66,51.12z
		 M29.798,44.845c-0.92,0.571-1.591,1.416-2.655,1.845c-0.032,0.311-0.701,0.514-0.403,0.779c1.359,1.21,0.153,1.58-0.799,2.05
		c-0.255,0.013-0.425,0.105-0.568,0.226l-0.031-10.709c0.627,0.031,1.047,0.671,1.742,0.492c0.709,0.229,1.634-0.292,2.178,0.511
		c0.466,0.054,0.931,0.068,1.397,0.098c1.149-0.085,0.92,0.6,0.888,1.172C32.268,42.977,31.223,43.974,29.798,44.845z"/>
	<path fill="#FFFFFF" d="M73.768,38.253v0.203c0.131-0.064,0.266-0.122,0.394-0.192c0.073-0.313,0.318-0.471,0.677-0.516
		c1.979-1.128,3.328-2.994,5.737-3.625c0.414-0.454,0.582-0.975,0.537-1.559c-0.415-0.881-1.029-1.431-2.134-0.802
		c-0.551,0.325-1.168,0.109-1.71,0.301c-0.795,1.161-2.595,0.387-3.535,1.341c-1.02,1.036-2.482,1.584-3.753,2.523v2.325H73.768z"/>
	<path fill="#FFFFFF" d="M67.582,6.479c-0.56,0.067-0.373,0.468-0.446,0.758c1.257,0.807,1.257,0.807,1.4,0.076
		C67.807,7.384,68.344,6.384,67.582,6.479z"/>
	<path fill="#FFFFFF" d="M32.328,11.28c0.218-0.956-0.565-0.881-1.237-0.867c-0.641,0.015-1.637-0.479-1.555,0.705
		C30.395,12.444,31.282,13.297,32.328,11.28z"/>
	<path fill="#FFFFFF" d="M31.549,32.538c-0.225-0.343-0.685-0.595-1.095-0.816c-0.273-0.146-0.644-0.061-0.663,0.266
		c-0.042,0.699,0.955,0.486,1.2,0.98C31.304,32.909,31.745,32.821,31.549,32.538z"/>
	<path fill="#FFFFFF" d="M44.176,72.184c-1.408-1.277-3.048-1.688-4.949-1c-0.617,0.227-1.229,0.432-1.925,0.293
		c-0.008,0.277-0.169,0.403-0.486,0.375c-1.125,2.318-0.703,4.374,1.518,6.121c1.378,0.159,2.793-0.005,4.153,0.37
		c1.226-0.624,2.035-1.686,3.001-2.508c1.185-0.997-1.234-2.015-1.245-3.264C44.243,72.438,44.213,72.312,44.176,72.184z"/>
	<path fill="#FFFFFF" d="M75.616,55.172c-0.51,0.075-0.833,0.321-0.978,0.75c0.357,0.897,1.254,0.265,1.838,0.503
		C76.612,55.797,76.305,55.391,75.616,55.172z"/>
	<path fill="#FFFFFF" d="M65.455,17.245c-0.817,0.173-1.16,0.651-1.236,1.285c-0.006,0.056,0.239,0.208,0.344,0.193
		C65.558,18.606,64.759,17.565,65.455,17.245z"/>
	<path fill="#FFFFFF" d="M81.861,58.747c0.397,0.586,0.866,0.324,1.164,0.48c0.465,0.244,1.195,0.974,1.086-0.11
		C84.047,58.56,82.794,58.875,81.861,58.747z"/>
	<path fill="#FFFFFF" d="M49.12,71.091c-0.757,0.188-0.655,0.913-0.672,1.496c-0.021,0.776-0.086,1.558-0.13,2.336
		c-0.023,0.272,0.128,0.411,0.446,0.429c-0.308-1.022,0.777-1.788,0.625-2.78c0.062-0.241,0.046-0.539,0.201-0.717
		C50.099,71.266,50.114,70.85,49.12,71.091z"/>
	<path fill="#FFFFFF" d="M62.624,74.931c-0.851-0.013-1.273,0.339-1.282,1.035c-0.008,0.517,0.383,0.964,0.948,0.918
		c0.639-0.057,1.028-0.504,0.928-1.137C63.259,75.352,63.369,74.944,62.624,74.931z"/>
	<path fill="#FFFFFF" d="M87.199,65.079c-0.036,0.673-0.075,1.342-0.114,2.007c1.066,0.82,2.049,0.401,2.945-0.177
		c0.716-0.458,0.366-0.972-0.035-1.532C89.149,64.205,88.167,64.863,87.199,65.079z"/>
	<path fill="#FFFFFF" d="M80.956,67.941c-0.011,0.268-0.028,0.535-0.042,0.802c0.927,0.715,0.927,0.715,1.888-0.293
		C81.96,67.34,81.96,67.34,80.956,67.941z"/>
	<path fill="#FFFFFF" d="M40.653,52.302c-0.665-0.581-1.311-0.612-1.93,0.028c-0.812-0.013-1.59,0.108-2.359,0.265
		c0.094,0.051,0.163,0.118,0.262,0.165c0.858,0.396,1.871,0.593,3.041,0.593c0.73,0,1.357-0.1,1.938-0.249
		C41.459,52.842,41.137,52.575,40.653,52.302z"/>
	<path fill="#FFFFFF" d="M37.53,38.169c-0.677,0.186-1.279,0.433-1.844,0.709c1.317-0.018,2.61-0.308,3.857-1.087
		C38.863,37.87,38.189,37.986,37.53,38.169z"/>
	<path fill="#FFFFFF" d="M71.229,41.648h2.539v-3.192c-0.632,0.315-1.287,0.592-1.889,0.962
		C70.888,40.036,70.521,40.708,71.229,41.648z"/>
	<path fill="#FFFFFF" d="M69.388,36.376c0.187-0.171,0.393-0.302,0.592-0.448v-1.38h-2.265c0.153,0.137,0.294,0.28,0.525,0.379
		C68.972,35.242,69.272,35.516,69.388,36.376z"/>
</g>
</svg>
